# xmcd
#
# Track frame offsets: 
#        150
#        12470
#        24775
#        38480
#        52809
#        64138
#        74865
#        86573
#        100445
#        113037
#        124582
#        136703
#        148902
#        161656
#        174736
#
# Disc length: 2487 seconds
#
# Revision: 0
# Processed by: cddbd v1.5.2PL0 Copyright (c) Steve Scherf et al.
# Submitted via: ExactAudioCopy v1.1
#
DISCID=cc09b50f
DTITLE=Bill Boyd's Cowboy Ramblers - Bill Boyd's Cowboy Ramblers_Lone 
DTITLE=Star Rag 1937-1949 Vol.2
DYEAR=2011
DGENRE=Country
TTITLE0=Beaumont Rag
TTITLE1=What's The Use
TTITLE2=Guess Who's In Town
TTITLE3=Fan It
TTITLE4=New Steel Guitar Rag
TTITLE5=I've Got Those Oklahoma Blues
TTITLE6=Boyd's Tin Roof Blues
TTITLE7=Spanish Fandango
TTITLE8=New Spanish Two Step
TTITLE9=Singing And Swinging For Me
TTITLE10=I've Got The Blues For Mammy
TTITLE11=Mill Blues
TTITLE12=La Golandrina
TTITLE13=New Fort Worth Rag
TTITLE14=Lone Star Rag
EXTD=
EXTT0=
EXTT1=
EXTT2=
EXTT3=
EXTT4=
EXTT5=
EXTT6=
EXTT7=
EXTT8=
EXTT9=
EXTT10=
EXTT11=
EXTT12=
EXTT13=
EXTT14=
PLAYORDER=
